<svg width="1200" height="320" viewBox="0 0 1200 320" fill="none" xmlns="http://www.w3.org/2000/svg">
  <defs>
    <linearGradient id="bg" x1="0" y1="0" x2="1200" y2="320" gradientUnits="userSpaceOnUse">
      <stop stop-color="#0A0814"/>
      <stop offset="0.55" stop-color="#161126"/>
      <stop offset="1" stop-color="#24172B"/>
    </linearGradient>
    <linearGradient id="gold" x1="267" y1="84" x2="930" y2="84" gradientUnits="userSpaceOnUse">
      <stop stop-color="#F8E6A2"/>
      <stop offset="0.5" stop-color="#FFD86B"/>
      <stop offset="1" stop-color="#F4B942"/>
    </linearGradient>
    <filter id="glow" x="-20%" y="-20%" width="140%" height="140%">
      <feGaussianBlur stdDeviation="8" result="blur"/>
      <feMerge>
        <feMergeNode in="blur"/>
        <feMergeNode in="SourceGraphic"/>
      </feMerge>
    </filter>
  </defs>

  <rect width="1200" height="320" rx="28" fill="url(#bg)"/>
  <rect x="18" y="18" width="1164" height="284" rx="22" stroke="rgba(255,216,107,0.35)" stroke-width="2"/>

  <g opacity="0.18">
    <circle cx="140" cy="88" r="56" fill="#FFD86B">
      <animate attributeName="opacity" values="0.10;0.24;0.10" dur="5s" repeatCount="indefinite"/>
    </circle>
    <circle cx="1035" cy="228" r="70" fill="#C44DFF">
      <animate attributeName="opacity" values="0.08;0.16;0.08" dur="6s" repeatCount="indefinite"/>
    </circle>
  </g>

  <g filter="url(#glow)">
    <text x="96" y="118" fill="url(#gold)" font-family="Segoe UI, Arial, sans-serif" font-size="52" font-weight="800" letter-spacing="1">BROOK MUSIC BOT</text>
    <text x="98" y="162" fill="#F6E8C0" font-family="Segoe UI, Arial, sans-serif" font-size="24" font-weight="600">Soul King energy for Telegram voice chats</text>
    <text x="98" y="202" fill="#D7C7A0" font-family="Segoe UI, Arial, sans-serif" font-size="20">Yohohoho! Queue songs, run setlists, and let Brook steal the stage.</text>
  </g>

  <g>
    <text x="920" y="116" fill="#F8E6A2" font-family="Segoe UI Symbol, Segoe UI, Arial, sans-serif" font-size="42">♪</text>
    <text x="980" y="84" fill="#FFD86B" font-family="Segoe UI Symbol, Segoe UI, Arial, sans-serif" font-size="56">♫</text>
    <text x="1040" y="128" fill="#F4B942" font-family="Segoe UI Symbol, Segoe UI, Arial, sans-serif" font-size="46">♬</text>
    <animateTransform attributeName="transform" type="translate" values="0 0; 0 -8; 0 0" dur="3.8s" repeatCount="indefinite"/>
  </g>

  <g>
    <text x="882" y="230" fill="#F5E7C8" font-family="Segoe UI, Arial, sans-serif" font-size="30" font-weight="700">YOHOHOHO!</text>
    <text x="852" y="264" fill="#D4B97F" font-family="Segoe UI, Arial, sans-serif" font-size="18">The Soul King is live tonight</text>
    <animate attributeName="opacity" values="0.85;1;0.85" dur="2.8s" repeatCount="indefinite"/>
  </g>

  <g opacity="0.85">
    <path d="M89 246C110 226 129 214 146 210C156 207 165 208 171 215C178 224 176 234 168 245C161 255 151 264 140 272" stroke="#FFD86B" stroke-width="4" stroke-linecap="round"/>
    <path d="M154 205C154 187 171 175 188 177C206 180 219 198 213 215C208 229 193 240 176 240" stroke="#F4B942" stroke-width="4" stroke-linecap="round"/>
    <animateTransform attributeName="transform" type="rotate" values="-2 140 236; 2 140 236; -2 140 236" dur="4s" repeatCount="indefinite"/>
  </g>
</svg>
